<svg viewBox="0 0 614 112" xmlns="http://www.w3.org/2000/svg" role="img" aria-label="StudeerSnel Logo" height="30px" width="165px" class="_73915ecf9336 _e87e9f505333"><path d="m198.71 65.886c-0.599-0.5985-0.901-1.3654-0.901-2.2892v-18.238h9.895v-13.084h-9.895v-14.554l-15.048 5.7229v8.8312h-7.524v13.084h7.524v20.364c0 4.311 1.296 7.7448 3.887 10.307 2.592 2.5622 6.008 3.8404 10.261 3.8404h9.917l3.359-13.084h-9.186c-0.93 0-1.691-0.3021-2.289-0.9005z" class="_44ecfb96b8b1"></path><path d="m79.725 37.672c-2.6493-0.3602-4.3749-2.9631-3.7009-5.5485l6.9023-26.523c0.7378-2.8353-1.4002-5.6009-4.3285-5.6009h-41.263c-20.62 0-37.335 16.716-37.335 37.335 0 18.906 14.049 34.529 32.28 36.992 2.6494 0.3603 4.375 2.9631 3.701 5.5486l-6.9023 26.523c-0.7379 2.835 1.4002 5.601 4.3285 5.601h41.263c20.62 0 37.336-16.716 37.336-37.335 0-18.906-14.049-34.529-32.281-36.992zm-0.7494 36.981h-37.719c-2.0393 0-3.8172-1.377-4.3284-3.3466l-7.3846-28.37c-0.7379-2.8352 1.4002-5.6008 4.3285-5.6008h37.719c2.0393 0 3.8172 1.377 4.3285 3.3466l7.3845 28.37c0.7379 2.8353-1.4002 5.6009-4.3284 5.6009z" class="_44ecfb96b8b1"></path><path d="m163.47 51.535c-2.429-0.8425-5.496-1.5978-9.203-2.2485-2.074-0.3835-3.626-0.6972-4.66-0.9412s-1.894-0.6159-2.574-1.1039c-0.679-0.4881-1.022-1.1446-1.022-1.9638 0-0.8715 0.407-1.5513 1.226-2.0451 0.819-0.4881 1.882-0.7379 3.189-0.7379 1.581 0 2.969 0.4241 4.172 1.2666 1.197 0.8482 2.016 1.8708 2.452 3.0676h14.804c-0.384-3.0502-1.551-5.7519-3.515-8.0991-1.964-2.3415-4.474-4.1716-7.524-5.4789-3.056-1.3072-6.327-1.9638-9.813-1.9638-3.765 0-7.118 0.6566-10.063 1.9638-2.946 1.3073-5.235 3.1374-6.874 5.4789-1.638 2.3472-2.451 5.0431-2.451 8.0991 0 3.7068 0.842 6.5712 2.533 8.5873s3.683 3.4221 5.972 4.2123c2.29 0.7901 5.206 1.4873 8.75 2.0858 2.127 0.3834 3.777 0.7088 4.951 0.9819 1.173 0.273 2.138 0.7088 2.905 1.3072 0.761 0.6043 1.144 1.4177 1.144 2.4518 0 0.9297-0.436 1.6733-1.307 2.2485-0.872 0.5694-2.074 0.8599-3.597 0.8599-1.307 0-2.55-0.2208-3.724-0.6565-1.173-0.4358-2.138-1.0458-2.905-1.8418-0.767-0.7902-1.226-1.6733-1.388-2.6552h-14.56c0.325 3.2711 1.487 6.147 3.474 8.6279s4.607 4.404 7.849 5.7694c3.242 1.3595 6.804 2.0451 10.673 2.0451 3.87 0 7.251-0.6681 10.307-2.0044 3.051-1.3364 5.45-3.2188 7.199-5.6416 1.743-2.4228 2.615-5.1651 2.615-8.2212 0-3.8695-0.901-6.8675-2.702-8.9939-1.801-2.1265-3.916-3.6139-6.339-4.4563h6e-3z" class="_44ecfb96b8b1"></path><path d="m243.62 59.506c0 1.5281-0.302 2.876-0.901 4.0496-0.598 1.1737-1.447 2.0858-2.533 2.7424-1.092 0.6507-2.371 0.9819-3.846 0.9819-2.016 0-3.637-0.6391-4.869-1.9232-1.226-1.284-1.842-3.0154-1.842-5.1941v-27.894h-15.048v31.165c0 3.4919 0.738 6.5596 2.208 9.2031 1.47 2.6436 3.503 4.6771 6.095 6.0948 2.591 1.4176 5.548 2.1264 8.872 2.1264 3.596 0 6.745-1.0923 9.447-3.271 1.266-1.0226 2.37-2.2311 3.329-3.6081l0.72 5.903h13.416v-47.602h-15.048v27.238-0.0117z" class="_44ecfb96b8b1"></path><path d="m296.04 36.365c-1.173-1.3015-2.521-2.3879-4.049-3.2362-2.208-1.2259-4.619-1.8418-7.24-1.8418-4.038 0-7.634 1.0226-10.795 3.0677-3.16 2.0452-5.63 4.9502-7.402 8.7093-1.772 3.7649-2.661 8.0991-2.661 13.003s0.884 9.2438 2.661 13.003c1.772 3.7649 4.242 6.6641 7.402 8.7092 3.161 2.0451 6.763 3.0677 10.795 3.0677 2.615 0 5.044-0.6159 7.28-1.8418 1.97-1.0807 3.626-2.539 4.985-4.3807l0.744 5.2406h13.334v-61.18h-15.048v17.674l-6e-3 0.0058zm-1.022 25.68c-0.68 1.6907-1.65 2.9864-2.905 3.8869-1.255 0.9006-2.754 1.348-4.497 1.348s-3.271-0.4532-4.578-1.348c-1.308-0.8947-2.319-2.1962-3.028-3.8869-0.708-1.6907-1.063-3.6777-1.063-5.9727 0-2.2949 0.355-4.282 1.063-5.9727 0.709-1.6907 1.72-2.9864 3.028-3.8869 1.307-0.9006 2.835-1.3479 4.578-1.3479s3.242 0.4473 4.497 1.3479c1.255 0.9005 2.219 2.1962 2.905 3.8869 0.68 1.6907 1.022 3.6836 1.022 5.9727 0 2.2892-0.342 4.282-1.022 5.9727z" class="_44ecfb96b8b1"></path><path d="m345.03 66.664c-1.254 0.6798-2.783 1.0226-4.578 1.0226-2.016 0-3.776-0.5171-5.275-1.5571-1.499-1.0342-2.632-2.3995-3.393-4.0903-0.39-0.8657-0.68-1.7604-0.872-2.6958h30.642c0.982-5.2349 0.657-9.9933-0.982-14.275-1.638-4.282-4.334-7.646-8.099-10.104-3.765-2.4577-8.151-3.6778-13.171-3.6778-4.578 0-8.616 1.1155-12.102 3.3524-3.492 2.2369-6.177 5.2465-8.059 9.0404-1.882 3.7882-2.824 7.9191-2.824 12.393s1.011 8.6047 3.027 12.393c2.016 3.7882 4.852 6.8036 8.506 9.0346 3.655 2.2369 7.85 3.3524 12.596 3.3524 5.508 0 10.249-1.4293 14.235-4.2936 3.98-2.8643 6.652-7.0185 8.018-12.474h-15.13c-0.435 1.04-1.284 1.8941-2.533 2.5797h-6e-3zm-10.062-22.003c1.359-0.8424 2.916-1.2666 4.659-1.2666 2.179 0 3.992 0.5869 5.438 1.7605 1.447 1.1736 2.22 2.7132 2.33 4.6189h-16.21c0.163-0.5345 0.355-1.0399 0.587-1.5106 0.761-1.5512 1.824-2.7539 3.19-3.5964l6e-3 -0.0058z" class="_44ecfb96b8b1"></path><path d="m394.6 66.664c-1.255 0.6798-2.783 1.0226-4.578 1.0226-2.016 0-3.777-0.5171-5.276-1.5571-1.499-1.0342-2.632-2.3995-3.393-4.0903-0.389-0.8657-0.68-1.7604-0.871-2.6958h30.642c0.982-5.2349 0.656-9.9933-0.982-14.275-1.639-4.282-4.335-7.646-8.099-10.104-3.765-2.4577-8.152-3.6778-13.172-3.6778-4.578 0-8.616 1.1155-12.102 3.3524-3.492 2.2369-6.176 5.2465-8.059 9.0404-1.882 3.7882-2.823 7.9191-2.823 12.393s1.011 8.6047 3.027 12.393c2.016 3.7882 4.851 6.8036 8.506 9.0346 3.654 2.2369 7.849 3.3524 12.596 3.3524 5.508 0 10.249-1.4293 14.234-4.2936 3.98-2.8643 6.653-7.0185 8.018-12.474h-15.129c-0.436 1.04-1.284 1.8941-2.533 2.5797h-6e-3zm-10.063-22.003c1.359-0.8424 2.917-1.2666 4.66-1.2666 2.178 0 3.991 0.5869 5.438 1.7605 1.446 1.1736 2.219 2.7132 2.33 4.6189h-16.21c0.162-0.5345 0.354-1.0399 0.586-1.5106 0.762-1.5512 1.825-2.7539 3.19-3.5964l6e-3 -0.0058z" class="_44ecfb96b8b1"></path><path d="m484.78 51.535c-2.429-0.8425-5.497-1.5978-9.203-2.2485-2.075-0.3835-3.626-0.6972-4.66-0.9412s-1.894-0.6159-2.574-1.1039c-0.68-0.4881-1.023-1.1446-1.023-1.9638 0-0.8715 0.407-1.5513 1.226-2.0451 0.82-0.4881 1.883-0.7379 3.19-0.7379 1.581 0 2.969 0.4241 4.172 1.2666 1.197 0.8482 2.016 1.8708 2.452 3.0676h14.804c-0.384-3.0502-1.552-5.7519-3.516-8.0991-1.963-2.3415-4.473-4.1716-7.523-5.4789-3.057-1.3072-6.328-1.9638-9.814-1.9638-3.765 0-7.117 0.6566-10.063 1.9638-2.945 1.3073-5.234 3.1374-6.873 5.4789-1.638 2.3472-2.452 5.0431-2.452 8.0991 0 3.7068 0.843 6.5712 2.533 8.5873 1.691 2.0161 3.684 3.4221 5.973 4.2123 2.289 0.7901 5.206 1.4873 8.75 2.0858 2.127 0.3834 3.777 0.7088 4.95 0.9819 1.174 0.273 2.138 0.7088 2.905 1.3072 0.761 0.6043 1.145 1.4177 1.145 2.4518 0 0.9297-0.436 1.6733-1.307 2.2485-0.872 0.5694-2.075 0.8599-3.597 0.8599-1.307 0-2.55-0.2208-3.724-0.6565-1.174-0.4358-2.138-1.0458-2.905-1.8418-0.767-0.7902-1.226-1.6733-1.389-2.6552h-14.56c0.326 3.2711 1.488 6.147 3.475 8.6279s4.607 4.404 7.849 5.7694c3.242 1.3595 6.804 2.0451 10.673 2.0451 3.87 0 7.251-0.6681 10.307-2.0044 3.05-1.3364 5.45-3.2188 7.199-5.6416 1.743-2.4228 2.614-5.1651 2.614-8.2212 0-3.8695-0.9-6.8675-2.701-8.9939-1.801-2.1265-3.916-3.6139-6.339-4.4563h6e-3z" class="_44ecfb96b8b1"></path><path d="m534.42 33.419c-2.592-1.4176-5.549-2.1265-8.872-2.1265-3.597 0-6.746 1.0923-9.447 3.2711-1.267 1.0225-2.371 2.231-3.33 3.6138l-0.72-5.903h-13.415v47.602h15.048v-27.237c0-1.5281 0.296-2.876 0.9-4.0496 0.599-1.1736 1.447-2.0858 2.533-2.7423 1.093-0.6565 2.371-0.9819 3.847-0.9819 2.016 0 3.637 0.6391 4.868 1.9231 1.226 1.284 1.842 3.0154 1.842 5.1942v27.894h15.048v-31.165c0-3.4918-0.738-6.5595-2.208-9.2031-1.47-2.6435-3.503-4.6771-6.094-6.0947v0.0058z" class="_44ecfb96b8b1"></path><path d="m576.26 66.664c-1.255 0.6798-2.783 1.0226-4.578 1.0226-2.016 0-3.777-0.5171-5.276-1.5571-1.499-1.0342-2.632-2.3995-3.393-4.0903-0.389-0.8657-0.68-1.7604-0.871-2.6958h30.642c0.982-5.2349 0.656-9.9933-0.982-14.275-1.639-4.282-4.334-7.646-8.099-10.104-3.765-2.4577-8.152-3.6778-13.172-3.6778-4.578 0-8.616 1.1155-12.102 3.3524-3.492 2.2369-6.176 5.2465-8.059 9.0404-1.882 3.7882-2.823 7.9191-2.823 12.393s1.011 8.6047 3.027 12.393c2.016 3.7882 4.851 6.8036 8.506 9.0346 3.654 2.2369 7.849 3.3524 12.596 3.3524 5.508 0 10.249-1.4293 14.234-4.2936 3.98-2.8643 6.653-7.0185 8.018-12.474h-15.129c-0.436 1.04-1.284 1.8941-2.533 2.5797h-6e-3zm-10.063-22.003c1.36-0.8424 2.917-1.2666 4.66-1.2666 2.178 0 3.991 0.5869 5.438 1.7605s2.219 2.7132 2.33 4.6189h-16.21c0.162-0.5345 0.354-1.0399 0.587-1.5106 0.761-1.5512 1.824-2.7539 3.189-3.5964l6e-3 -0.0058z" class="_44ecfb96b8b1"></path><path d="m613.39 18.697h-15.048v61.18h15.048v-61.18z" class="_44ecfb96b8b1"></path><path d="m441.31 32.275c-2.563 0-4.788 0.8309-6.664 2.4925-1.325 1.1737-2.284 2.6146-2.894 4.3111l-0.831-6.8036h-13.415v47.602h15.048v-22.084c0-3.8172 0.86-6.8442 2.574-9.0811 1.72-2.2368 4.131-3.3524 7.239-3.3524h7.768l-3.358-13.084h-5.473 6e-3z" class="_44ecfb96b8b1"></path></svg>