<svg viewBox="0 0 124 30" xmlns="http://www.w3.org/2000/svg" role="img" aria-label="Studocu Logo" height="30px" width="124px" class="_73915ecf9336"><g clip-path="url(#a)" class="_44ecfb96b8b1"><path d="m43.611 13.803c-0.8017-0.2642-1.6225-0.4655-2.4552-0.6023-0.5518-0.1011-0.9672-0.1851-1.24-0.2505-0.2457-0.0534-0.4788-0.1537-0.6866-0.2957-0.0855-0.058-0.1552-0.1364-0.2029-0.2283-0.0476-0.0918-0.0716-0.1941-0.07-0.2977-0.0014-0.1127 0.0285-0.2237 0.0862-0.3204 0.0578-0.0967 0.1412-0.1754 0.2409-0.2273 0.2605-0.1424 0.5547-0.2107 0.8509-0.1977 0.3973-0.0071 0.7867 0.1116 1.1129 0.3393 0.2976 0.1992 0.5261 0.4863 0.6541 0.8216h3.9494c-0.0944-0.7994-0.4211-1.5533-0.9393-2.1677-0.5448-0.64425-1.2358-1.1476-2.015-1.4675-1.6979-0.70142-3.603-0.70142-5.301 0-0.7347 0.3086-1.3691 0.8168-1.8321 1.4675-0.4391 0.6358-0.6679 1.3941-0.6541 2.1677 0 0.9929 0.2253 1.7595 0.6758 2.3001 0.4169 0.5163 0.9678 0.9067 1.5919 1.1282 0.762 0.2485 1.5426 0.4354 2.3343 0.5587 0.5673 0.1037 1.0075 0.1914 1.3206 0.263 0.2807 0.0585 0.5452 0.178 0.775 0.3501 0.1001 0.0767 0.1805 0.1763 0.2344 0.2905 0.054 0.1143 0.0799 0.2398 0.0756 0.3662 0 0.1224-0.0322 0.2426-0.0935 0.3484-0.0612 0.1057-0.1493 0.1933-0.2553 0.2538-0.2913 0.1687-0.6252 0.2487-0.961 0.2303-0.3383 0.0021-0.6744-0.0569-0.992-0.1742-0.2922-0.1034-0.5572-0.2721-0.775-0.4933-0.1938-0.1935-0.3232-0.4425-0.3704-0.7128h-3.8843c0.0757 0.8457 0.3993 1.6499 0.93 2.3109 0.5567 0.6846 1.2771 1.2162 2.094 1.5453 0.903 0.3723 1.8713 0.5586 2.8474 0.5478 0.9417 0.0141 1.876-0.1687 2.7435-0.5369 0.7653-0.3186 1.4294-0.8411 1.9204-1.511 0.4619-0.6399 0.7064-1.4119 0.6975-2.202 0-1.0375-0.2397-1.8405-0.7192-2.409-0.4445-0.5443-1.0279-0.9574-1.6879-1.1951z"></path><path d="m53.01 17.645c-0.0795-0.0804-0.1418-0.1763-0.1831-0.2817-0.0414-0.1054-0.0608-0.2182-0.0572-0.3315v-4.8817h2.635v-3.5045h-2.635v-3.8998l-4.0129 1.5391v2.3654h-2.0073v3.5045h2.0073v5.4466c0 1.1536 0.3456 2.0733 1.0369 2.7591s1.6037 1.0292 2.7373 1.0302h2.649l0.8959-3.5045h-2.4459c-0.1144 0.0049-0.2285-0.014-0.3352-0.0555s-0.2037-0.1047-0.2848-0.1857z"></path><path d="m64.998 15.934c8e-3 0.3772-0.0744 0.7508-0.2402 1.0893-0.1504 0.3045-0.385 0.559-0.6758 0.733-0.3114 0.181-0.6665 0.272-1.0261 0.263-0.2402 0.0108-0.48-0.0295-0.7036-0.1182-0.2236-0.0888-0.4259-0.2241-0.5938-0.3969-0.3265-0.3424-0.4903-0.8056-0.4913-1.3897v-7.4696h-4.0145v8.3473c-0.0185 0.8584 0.1844 1.707 0.589 2.4634 0.3745 0.6897 0.939 1.2564 1.6259 1.6325 0.7279 0.3887 1.5425 0.5848 2.3669 0.5695 0.9166 0.0153 1.8092-0.295 2.5203-0.8761 0.3406-0.2796 0.6392-0.6072 0.8866-0.9726l0.1937 1.5857h3.5774v-12.748h-4.0145v7.2876z"></path><path d="m79.005 9.7478c-0.3104-0.34948-0.6772-0.64407-1.085-0.87146-0.5902-0.32979-1.2558-0.49979-1.9313-0.49331-1.0195-0.0163-2.0212 0.2695-2.8798 0.82167-0.866 0.5737-1.551 1.3834-1.9748 2.3342-0.4674 1.1012-0.7084 2.2858-0.7084 3.4828 0 1.1969 0.241 2.3816 0.7084 3.4827 0.4242 0.9505 1.1091 1.7602 1.9748 2.3343 0.8586 0.5521 1.8603 0.8379 2.8798 0.8216 0.6788 0.0048 1.3474-0.165 1.9422-0.4933 0.5238-0.291 0.977-0.6949 1.3268-1.1827l0.1999 1.413h3.5557v-16.388h-4.0129l0.0046 4.7386zm-0.265 6.8705c-0.1535 0.4145-0.4225 0.7759-0.775 1.0411-0.3512 0.246-0.7716 0.3725-1.1997 0.361-0.4346 0.0097-0.8614-0.1165-1.2214-0.361-0.3648-0.2603-0.6456-0.6222-0.8075-1.0411-0.3783-1.0322-0.3783-2.1658 0-3.1979 0.1619-0.4185 0.4427-0.7799 0.8075-1.0396 0.3599-0.2449 0.7867-0.3716 1.2214-0.3625 0.4282-0.011 0.8487 0.1161 1.1997 0.3625 0.3524 0.2646 0.6215 0.6255 0.775 1.0396 0.3638 1.0347 0.3638 2.1632 0 3.1979z"></path><path d="m94.124 9.1939c-0.9455-0.54155-2.0584-0.8118-3.3387-0.81077-1.1603-0.02659-2.3072 0.25297-3.3262 0.81077-0.9488 0.53271-1.7177 1.3373-2.2088 2.3109-0.5167 1.0012-0.775 2.173-0.775 3.5154 0 1.3425 0.2583 2.5179 0.775 3.5263 0.4924 0.9684 1.2593 1.7687 2.2041 2.3001 1.0193 0.557 2.1661 0.8365 3.3263 0.8107 1.2803 0 2.3932-0.2702 3.3387-0.8107 0.9395-0.5342 1.7017-1.3341 2.1917-2.3001 0.5167-0.9928 0.775-2.1682 0.775-3.5263 0-1.358-0.2583-2.5334-0.775-3.5263-0.4887-0.9653-1.2493-1.7651-2.1871-2.3zm-1.3314 7.4463c-0.1588 0.4142-0.4353 0.7725-0.7951 1.0302-0.363 0.2287-0.7829 0.3501-1.2114 0.3501s-0.8483-0.1214-1.2113-0.3501c-0.3603-0.2576-0.6374-0.6159-0.7967-1.0302-0.3782-1.0471-0.3782-2.1944 0-3.2415 0.1597-0.4141 0.4367-0.7722 0.7967-1.0302 0.363-0.2287 0.7828-0.35 1.2113-0.35s0.8484 0.1213 1.2114 0.35c0.3595 0.2581 0.6359 0.6162 0.7951 1.0302 0.3782 1.0471 0.3782 2.1944 0 3.2415z"></path><path d="m106.14 17.551c-0.391 0.3184-0.883 0.4842-1.386 0.4668-0.453 0.0075-0.898-0.1221-1.277-0.3719-0.381-0.2611-0.68-0.6261-0.862-1.052-0.214-0.4973-0.32-1.0348-0.31-1.5764-0.011-0.5493 0.095-1.0946 0.31-1.5998 0.18-0.4237 0.479-0.7851 0.862-1.0395 0.381-0.2442 0.825-0.3703 1.277-0.3626 0.239-0.0046 0.477 0.0385 0.7 0.1269 0.223 0.0885 0.426 0.2204 0.597 0.3882 0.354 0.3385 0.574 0.7939 0.62 1.2823h3.993c-0.022-1.0094-0.308-1.9953-0.829-2.8587-0.502-0.8195-1.224-1.4802-2.083-1.9063-0.934-0.45713-1.961-0.68591-3-0.6676-1.295 0-2.432 0.27026-3.41 0.81077-0.964 0.52873-1.7498 1.333-2.258 2.3109-0.5311 1.0011-0.7967 2.1729-0.7967 3.5154s0.2656 2.5143 0.7967 3.5154c0.5082 0.9779 1.294 1.7822 2.258 2.3109 0.987 0.5019 2.072 0.7779 3.177 0.808s2.204-0.1863 3.216-0.6337c0.872-0.4022 1.619-1.0327 2.165-1.8254 0.559-0.8341 0.893-1.799 0.97-2.8011h-4.07c-0.069 0.4553-0.305 0.8684-0.66 1.1594z"></path><path d="m119.98 8.646v7.2876c8e-3 0.3772-0.074 0.7508-0.24 1.0893-0.151 0.3042-0.385 0.5586-0.676 0.733-0.311 0.181-0.666 0.272-1.026 0.263-0.24 0.0108-0.48-0.0295-0.703-0.1182-0.224-0.0888-0.426-0.2241-0.594-0.3969-0.328-0.3424-0.491-0.8056-0.491-1.3897v-7.4696h-4.015v8.3473c-0.018 0.8584 0.185 1.707 0.589 2.4634 0.375 0.6897 0.939 1.2564 1.626 1.6325 0.728 0.3889 1.543 0.5849 2.367 0.5695 0.916 0.0147 1.809-0.2955 2.52-0.8761 0.341-0.2796 0.64-0.6072 0.887-0.9726l0.192 1.5858h3.579v-12.748h-4.015z"></path><path d="m21.271 10.09c-0.1666-0.0231-0.3264-0.0814-0.4689-0.17103-0.1425-0.08965-0.2644-0.20863-0.3578-0.34909-0.0933-0.14046-0.1558-0.2992-0.1836-0.46573-0.0276-0.16653-0.0198-0.33706 0.0229-0.50034l1.8414-7.104c0.046-0.17715 0.0509-0.36252 0.0144-0.54187-0.0365-0.17935-0.1135-0.34792-0.225-0.49276s-0.2546-0.26212-0.4182-0.34282c-0.1637-0.080698-0.3436-0.12268-0.5259-0.12272h-11.005c-2.5234 0.0024162-4.9519 0.9662-6.7949 2.6967-1.843 1.7305-2.9633 4.0987-3.1345 6.6263-0.1712 2.5276 0.61941 5.0263 2.2121 6.9914 1.5927 1.965 3.8689 3.25 6.3688 3.5953 0.16648 0.0233 0.32615 0.0818 0.46852 0.1715 0.14238 0.0897 0.26421 0.2087 0.35749 0.3491 0.09327 0.1404 0.15587 0.299 0.18368 0.4654 0.02781 0.1665 0.02019 0.3369-0.02234 0.5002l-1.8414 7.1039c-0.04593 0.1772-0.05083 0.3626-0.01432 0.5419 0.03652 0.1794 0.11348 0.3479 0.22497 0.4928 0.1115 0.1448 0.25456 0.2621 0.41822 0.3428s0.34356 0.1227 0.52589 0.1227h11.005c2.5234-0.0024 4.9519-0.9662 6.7949-2.6967s2.9633-4.0987 3.1345-6.6263-0.6194-5.0263-2.2122-6.9914c-1.5927-1.965-3.8689-3.25-6.3687-3.5953zm-0.2 9.9066h-10.064c-0.2641-3e-4 -0.5206-0.0885-0.7295-0.2506-0.2089-0.1622-0.35846-0.3893-0.42525-0.6458l-1.97-7.6003c-0.04594-0.1772-0.05084-0.3626-0.01433-0.5419 0.03652-0.1794 0.11347-0.3479 0.22496-0.4928 0.1115-0.1448 0.25456-0.2621 0.41822-0.3428s0.34356-0.1227 0.52589-0.1227h10.063c0.2643-2e-5 0.5212 0.0879 0.7304 0.2501s0.359 0.3895 0.4258 0.6463l1.9701 7.6003c0.0459 0.1772 0.0508 0.3625 0.0143 0.5419-0.0365 0.1793-0.1135 0.3479-0.2249 0.4928-0.1115 0.1448-0.2546 0.2621-0.4183 0.3428-0.1636 0.0807-0.3435 0.1226-0.5259 0.1227z"></path></g><defs><clipPath id="a"><rect width="124" height="30" class="_44ecfb96b8b1"></rect></clipPath></defs></svg>